<?xml version="1.0" encoding="utf-8"?>
<!-- Generator: Adobe Illustrator 15.0.0, SVG Export Plug-In . SVG Version: 6.00 Build 0)  -->
<!DOCTYPE svg PUBLIC "-//W3C//DTD SVG 1.1//EN" "http://www.w3.org/Graphics/SVG/1.1/DTD/svg11.dtd">
<svg version="1.1" id="Layer_2" xmlns="http://www.w3.org/2000/svg" xmlns:xlink="http://www.w3.org/1999/xlink" x="0px" y="0px"
	 width="841.891px" height="595.275px" viewBox="0 0 841.891 595.275" enable-background="new 0 0 841.891 595.275"
	 xml:space="preserve">
<circle name="唐山DC" fill="black" cx="10" cy="80" r="10"/>
<circle name="唐山专线1" fill="gray" cx="110" cy="80" r="8"/>
<circle name="唐山专线2" fill="gray" cx="210" cy="80" r="8"/>
<circle name="承德专线" fill="gray" cx="310" cy="80" r="8"/>
<circle name="抚顺专线" fill="gray" cx="410" cy="80" r="8"/>
<circle name="双鸭山专线" fill="gray" cx="510" cy="80" r="8"/>
<circle name="丰润专线" fill="gray" cx="610" cy="80" r="8"/>
<circle name="山西专线" fill="gray" cx="710" cy="80" r="8"/>
<circle name="嘉天专线" fill="gray" cx="810" cy="80" r="8"/>
<circle name="青岛专线" fill="gray" cx="110" cy="160" r="8"/>
<circle name="川锅专线" fill="gray" cx="210" cy="160" r="8"/>
<circle name="凌源专线" fill="gray" cx="310" cy="160" r="8"/>
<circle name="上海专线" fill="gray" cx="410" cy="160" r="8"/>
<circle name="舟山专线" fill="gray" cx="510" cy="160" r="8"/>
<circle name="浙江专线" fill="gray" cx="610" cy="160" r="8"/>
<circle name="杭州专线" fill="gray" cx="710" cy="160" r="8"/>
<circle name="电商联通专线" fill="gray" cx="810" cy="160" r="8"/>
<circle name="唐山联通Internet" fill="gray" cx="110" cy="240" r="8"/>
<circle name="唐山电信Internet" fill="gray" cx="410" cy="240" r="8"/>

<circle name="天津捷威专线" fill="gray" cx="10" cy="320" r="10"/>
<circle name="龙港专线" fill="gray" cx="110" cy="320" r="8"/>
<circle name="天津建龙专线" fill="gray" cx="210" cy="320" r="8"/>
<circle name="茂联专线" fill="gray" cx="410" cy="320" r="8"/>
<circle name="祥威专线" fill="gray" cx="610" cy="320" r="8"/>
<circle name="祥嘉专线" fill="gray" cx="810" cy="320" r="8"/>

<circle name="北京专线" fill="gray" cx="10" cy="420" r="10"/>
<circle name="北京总裁楼" fill="gray" cx="110" cy="420" r="8"/>
<circle name="北京矿业" fill="gray" cx="210" cy="420" r="8"/>
<circle name="北京志能祥赢" fill="gray" cx="410" cy="420" r="8"/>
<circle name="北京洪祥航运" fill="gray" cx="610" cy="420" r="8"/>
<circle name="北京联通Internet" fill="gray" cx="810" cy="420" r="8"/>

<circle name="吉林专线" fill="gray" cx="10" cy="520" r="10"/>
<circle name="长春专线" fill="gray" cx="110" cy="520" r="8"/>
<circle name="明城专线" fill="gray" cx="210" cy="520" r="8"/>


</svg>
