<?xml version="1.0" encoding="utf-8"?>
<!-- Generator: Adobe Illustrator 15.0.0, SVG Export Plug-In . SVG Version: 6.00 Build 0)  -->
<!DOCTYPE svg PUBLIC "-//W3C//DTD SVG 1.1//EN" "http://www.w3.org/Graphics/SVG/1.1/DTD/svg11.dtd">
<svg version="1.1" id="Layer_2" xmlns="http://www.w3.org/2000/svg" xmlns:xlink="http://www.w3.org/1999/xlink" x="0px" y="0px"
	 width="841.891px" height="595.275px" viewBox="0 0 841.891 595.275" enable-background="new 0 0 841.891 595.275"
	 xml:space="preserve">
<circle name="数据中心" fill="black" cx="460" cy="240" r="10"/>
<circle name="唐山1" fill="black" cx="392" cy="116" r="8"/>
<circle name="唐山2" fill="black" cx="392" cy="187" r="8"/>
<circle name="承德" fill="black" cx="600" cy="180" r="8"/>
<circle name="丰润" fill="black" cx="610" cy="260" r="8"/>
<circle name="青岛" fill="black" cx="700" cy="260" r="8"/>
<circle name="凌源" fill="black" cx="740" cy="210" r="8"/>
<circle name="吉林" fill="black" cx="645" cy="90" r="8"/>
<circle name="抚顺" fill="black" cx="637" cy="150" r="8"/>
<circle name="嘉天" fill="black" cx="458" cy="31" r="8"/>
<circle name="双鸭山" fill="black" cx="565" cy="26" r="8"/>
<circle name="北京" fill="black" cx="148" cy="250" r="8"/>
<circle name="天津" fill="black" cx="477" cy="385" r="8"/>
<circle name="川锅" fill="black" cx="285" cy="498" r="8"/>
<circle name="山西" fill="black" cx="307" cy="369" r="8"/>
<circle name="上海" fill="black" cx="710" cy="400" r="8"/>
<circle name="舟山" fill="black" cx="710" cy="460" r="8"/>
<circle name="浙江" fill="black" cx="710" cy="520" r="8"/>
<circle name="杭州" fill="black" cx="710" cy="580" r="8"/>
</svg>
